Coordinates
version=1
nRows=24
nColumns=24
inDegrees=yes

Units are S.I. units (second, meters, Newtons, ...)
Angles are in degrees.

endheader
time	pelvis_tilt	pelvis_list	pelvis_rotation	pelvis_tx	pelvis_ty	pelvis_tz	hip_flexion_r	hip_adduction_r	hip_rotation_r	knee_angle_r	ankle_angle_r	subtalar_angle_r	mtp_angle_r	hip_flexion_l	hip_adduction_l	hip_rotation_l	knee_angle_l	ankle_angle_l	subtalar_angle_l	mtp_angle_l	lumbar_extension	lumbar_bending	lumbar_rotation
      1.05866667	      7.21125087	     -3.09702209	     -1.37489290	      0.39072027	      1.02097374	      0.30238132	      5.30935727	      6.17982799	     -2.45573812	    -19.18274964	      0.03934979	    -16.03629021	      1.98081180	     10.74229280	     -7.02644087	     -5.04541622	    -80.37612338	      1.30740089	     -5.09274691	      1.23188126	    -18.69615991	      5.52448199	      2.66738597
      1.06283333	      7.41564654	     -2.92208748	     -1.58347754	      0.39556499	      1.02237098	      0.30308471	      4.58194945	      6.02376261	     -2.22714554	    -18.79464170	      0.09374887	    -15.96964740	      2.00209207	     11.17312848	     -6.84808452	     -5.21375328	    -80.19361042	      1.48387106	     -4.91332349	      1.20564833	    -18.92914406	      5.22848306	      2.83480660
      1.06700000	      7.62307808	     -2.74587773	     -1.79609617	      0.40040559	      1.02375793	      0.30378280	      3.85001002	      5.85773882	     -2.00581402	    -18.40032049	      0.15163021	    -15.87880985	      2.02303276	     11.58555500	     -6.67203298	     -5.39601648	    -79.95298787	      1.63765095	     -4.78612223	      1.17821778	    -19.16429820	      4.92913936	      3.00095491
      1.07116667	      7.74593096	     -2.57358117	     -1.97230493	      0.40519706	      1.02495723	      0.30437824	      3.22555422	      5.68316707	     -1.85052009	    -18.02067077	      0.14734862	    -15.77786985	      2.03391770	     12.10591743	     -6.49004039	     -5.53342935	    -79.69447652	      1.81465090	     -4.67039668	      1.16502873	    -19.30979595	      4.64854067	      3.09481673
      1.07533333	      8.00812656	     -2.40007983	     -2.20484099	      0.41002813	      1.02639465	      0.30514228	      2.42486734	      5.51042567	     -1.60928271	    -17.60544450	      0.26513703	    -15.65876529	      2.05466685	     12.41534265	     -6.33780740	     -5.76681054	    -79.32025082	      1.90936900	     -4.60456209	      1.13423161	    -19.60416814	      4.33852453	      3.29443433
      1.07950000	      8.16966899	     -2.22593132	     -2.40089953	      0.41482013	      1.02762496	      0.30580448	      1.75044546	      5.32695651	     -1.43103234	    -17.20863926	      0.31670734	    -15.55025387	      2.07163543	     12.84906107	     -6.17406225	     -5.95239553	    -78.92778165	      2.02029106	     -4.54349334	      1.10615603	    -19.78611005	      4.04309782	      3.42649444
      1.08366667	      8.35008744	     -2.05713858	     -2.59760109	      0.41958243	      1.02884163	      0.30646650	      1.05909152	      5.14148610	     -1.26191382	    -16.81402473	      0.37572376	    -15.41097219	      2.08726733	     13.24773540	     -6.02270435	     -6.15035375	    -78.48349496	      2.12225292	     -4.50766721	      1.07731973	    -19.99393649	      3.75110848	      3.55965129
      1.08783333	      8.49088857	     -1.89112253	     -2.78744311	      0.42434272	      1.02996470	      0.30712392	      0.41657971	      4.95542967	     -1.11387249	    -16.42745406	      0.43695663	    -15.26364121	      2.10069487	     13.68057800	     -5.87932659	     -6.34565384	    -77.99500212	      2.20557718	     -4.50404640	      1.04890513	    -20.15304900	      3.45621302	      3.67581199
      1.09200000	      8.63583908	     -1.72600756	     -2.97457107	      0.42908297	      1.03106030	      0.30773800	     -0.22787750	      4.76114354	     -0.97527590	    -16.04045673	      0.50001014	    -15.09897335	      2.11258653	     14.09363251	     -5.73492413	     -6.54494207	    -77.45294096	      2.27937319	     -4.51710315	      1.01963133	    -20.31919433	      3.17673192	      3.78867592
      1.09616667	      8.75861770	     -1.56507746	     -3.15886457	      0.43380662	      1.03207974	      0.30836282	     -0.84008564	      4.56863376	     -0.85467044	    -15.66577770	      0.57048893	    -14.92040923	      2.12302612	     14.51904769	     -5.60148726	     -6.74595254	    -76.86654039	      2.34193739	     -4.55398807	      0.98988956	    -20.46005793	      2.89305659	      3.89285421
      1.10033333	      8.88071568	     -1.41600955	     -3.33819102	      0.43851442	      1.03305641	      0.30896347	     -1.45086935	      4.38340691	     -0.74304443	    -15.28804136	      0.63810156	    -14.73077756	      2.13228810	     14.93094820	     -5.48296002	     -6.94678760	    -76.23417668	      2.40120032	     -4.60653815	      0.95798278	    -20.60111549	      2.63092293	      3.99749277
      1.10450000	      8.98592267	     -1.26521785	     -3.51919696	      0.44321345	      1.03397145	      0.30955029	     -2.03618519	      4.19128878	     -0.64208287	    -14.92058762	      0.71298070	    -14.52262708	      2.14121867	     15.34432888	     -5.36402506	     -7.15333325	    -75.55086753	      2.45127943	     -4.68366564	      0.92328983	    -20.72608207	      2.37578445	      4.09445309
      1.10866667	      9.08013651	     -1.13687188	     -3.68993996	      0.44790467	      1.03482063	      0.31011772	     -2.60901092	      4.02037243	     -0.56048869	    -14.55257144	      0.78118525	    -14.29369354	      2.14994799	     15.75736228	     -5.27257203	     -7.35210844	    -74.83125781	      2.50288988	     -4.77973606	      0.87916458	    -20.83762324	      2.13458619	      4.19523790
      1.11283333	      9.13985613	     -0.99415372	     -3.85763458	      0.45258410	      1.03557601	      0.31067690	     -3.13093591	      3.83317010	     -0.49265889	    -14.20849120	      0.87744129	    -14.09266963	      2.15666958	     16.19300934	     -5.16748384	     -7.55189920	    -74.05980973	      2.53151547	     -4.88178151	      0.84268668	    -20.90963996	      1.87908292	      4.26428510
      1.11700000	      9.19443632	     -0.86681114	     -4.02343935	      0.45726180	      1.03627727	      0.31122555	     -3.64684928	      3.65918111	     -0.43452848	    -13.86239561	      0.95977471	    -13.85718718	      2.16293039	     16.61641878	     -5.08137096	     -7.75217021	    -73.24624500	      2.56729809	     -5.00631366	      0.80508206	    -20.97863365	      1.64450921	      4.34819016
      1.12116667	      9.23497365	     -0.74880045	     -4.19060111	      0.46193517	      1.03692026	      0.31175768	     -4.14313405	      3.49195197	     -0.38126625	    -13.52475962	      1.05425898	    -13.61698640	      2.16952886	     17.03546400	     -5.00823627	     -7.95708352	    -72.38537572	      2.59913292	     -5.14613410	      0.76396077	    -21.02876145	      1.42655963	      4.43238977
      1.12533333	      9.25687367	     -0.63880141	     -4.35617363	      0.46660948	      1.03748716	      0.31228216	     -4.61431341	      3.33234860	     -0.33582279	    -13.19539855	      1.14961078	    -13.37517524	      2.17612967	     17.45647087	     -4.94675906	     -8.16282627	    -71.48204947	      2.63176020	     -5.29593131	      0.71749856	    -21.05989385	      1.21919192	      4.51650584
      1.12950000	      9.28110110	     -0.53857982	     -4.51496253	      0.47127448	      1.03800818	      0.31279367	     -5.08644857	      3.18194230	     -0.30340854	    -12.86710018	      1.23800575	    -13.14046202	      2.18263567	     17.85678909	     -4.89631496	     -8.36615006	    -70.53449803	      2.66022053	     -5.46156950	      0.67066717	    -21.09208448	      1.01986979	      4.59475096
      1.13366667	      9.27820172	     -0.45035413	     -4.67281747	      0.47593976	      1.03844394	      0.31330053	     -5.52425620	      3.04523624	     -0.27053739	    -12.54909159	      1.33291909	    -12.89590773	      2.18962946	     18.26870706	     -4.86113565	     -8.56687578	    -69.54782831	      2.69188086	     -5.64291692	      0.61861486	    -21.09694937	      0.83605642	      4.67427365
      1.13783333	      9.26823835	     -0.36979268	     -4.82959223	      0.48060640	      1.03882124	      0.31378821	     -5.95125956	      2.91506043	     -0.24295253	    -12.23705944	      1.43113144	    -12.66076493	      2.19757732	     18.66706998	     -4.83398286	     -8.76917729	    -68.51615428	      2.71838284	     -5.84250110	      0.56241905	    -21.09197751	      0.66444558	      4.75422180
      1.14200000	      9.27244415	     -0.29435301	     -4.98428266	      0.48526928	      1.03917295	      0.31427320	     -6.39096529	      2.78781807	     -0.22189156	    -11.93039376	      1.52646939	    -12.42648354	      2.20582541	     19.02686519	     -4.81216909	     -8.97479098	    -67.43636105	      2.74441312	     -6.05431534	      0.50092955	    -21.10138319	      0.49646427	      4.83304193
      1.14616667	      9.19441610	     -0.28213838	     -5.09853229	      0.48993478	      1.03931583	      0.31470843	     -6.75685370	      2.74568107	     -0.19108621	    -11.59665748	      1.54326189	    -12.24340530	      2.21027411	     19.48112679	     -4.85730522	     -9.12055868	    -66.36876195	      2.83204343	     -6.23416364	      0.47014158	    -21.03685489	      0.40675329	      4.86921781
      1.15033333	      9.22419972	     -0.18399835	     -5.28493545	      0.49457209	      1.03963791	      0.31519750	     -7.19775442	      2.58064640	     -0.15680667	    -11.34243795	      1.74587304	    -11.97076672	      2.22220023	     19.75458522	     -4.80816467	     -9.36708997	    -65.16508046	      2.79105716	     -6.53623102	      0.38616720	    -21.07790014	      0.21392082	      4.99709884
      1.15450000	      9.18360587	     -0.13924022	     -5.43161726	      0.49925754	      1.03979089	      0.31564426	     -7.58429061	      2.48851176	     -0.13022703	    -11.04716603	      1.82768292	    -11.76546785	      2.23301956	     20.09943386	     -4.81610062	     -9.56278230	    -63.96146724	      2.81693015	     -6.79377931	      0.30330738	    -21.04165239	      0.08770262	      5.07728315
